<svg xmlns="http://www.w3.org/2000/svg" xmlns:xlink="http://www.w3.org/1999/xlink" width="140" height="39"><g fill="#b7a07e"><path d="M22.559 29.21a8.34 8.34 0 0 1 .811-3.569l6.239 3.65.119 8.11c-1.986-.262-3.808-1.24-5.125-2.749s-2.039-3.446-2.031-5.449l-.012.006zM2.04 24.213c.749-1.009 1.724-1.829 2.846-2.394a8.07 8.07 0 0 1 3.617-.863 8.11 8.11 0 0 1 6.632 3.488l-6.638 3.906-6.457-4.136zM20.133 9.926l6.663-4.049c.607 1.177.923 2.482.923 3.806.011 2.077-.766 4.082-2.173 5.61s-3.342 2.466-5.413 2.625V9.926zM18.885.187v1.248 16.452a8.23 8.23 0 0 1-7.449-8.229c-.003-1.778.566-3.51 1.625-4.938s2.55-2.477 4.252-2.991V.418c-2.045.531-3.855 1.727-5.145 3.399s-1.986 3.728-1.98 5.84c-.011 2.387.878 4.69 2.49 6.45s3.829 2.848 6.207 3.045v3.076l-2.664 1.566a9.36 9.36 0 0 0-7.736-4.136 9.36 9.36 0 0 0-8.266 4.991l.661.43 6.239 4.018-.661.393-5.372 3.157L0 33.271a10.14 10.14 0 0 0 .624 1.111l.867-.518 14.262-8.391a8.28 8.28 0 0 1 .855 3.662 8.21 8.21 0 0 1-8.142 8.266 8.06 8.06 0 0 1-5.758-2.427l-1.104.624a9.3 9.3 0 0 0 6.863 3.038c2.509-.022 4.907-1.037 6.668-2.824s2.742-4.2 2.727-6.709a9.55 9.55 0 0 0-1.023-4.299l2.627-1.547 2.795 1.641a9.6 9.6 0 0 0-.98 4.205c-.015 2.509.966 4.922 2.727 6.709a9.48 9.48 0 0 0 6.669 2.824h.412v-.836l-.119-7.78 6.414 3.743 1.092.624c.233-.355.441-.727.624-1.111l-1.085-.624-14.044-8.235a8.11 8.11 0 0 1 6.707-3.587c2.175.018 4.254.898 5.781 2.446s2.379 3.639 2.367 5.814a8.31 8.31 0 0 1-.25 1.984l1.123.661c.252-.859.38-1.75.38-2.645.013-2.51-.969-4.922-2.731-6.709s-4.161-2.802-6.671-2.824a9.36 9.36 0 0 0-7.799 4.224l-2.758-1.616v-3.119c2.406-.163 4.66-1.238 6.302-3.004s2.55-4.092 2.538-6.504c-.001-2.029-.645-4.006-1.84-5.646l-1.079.655-5.921 3.594V.031c-.187 0-.368-.031-.555-.031s-.468 0-.705.037"/><use xlink:href="#B"/><use xlink:href="#B"/><use xlink:href="#C"/><use xlink:href="#C"/><use xlink:href="#D"/><use xlink:href="#D"/><use xlink:href="#E"/><use xlink:href="#E"/><use xlink:href="#F"/><use xlink:href="#F"/><use xlink:href="#G"/><use xlink:href="#G"/><use xlink:href="#H"/><use xlink:href="#H"/><use xlink:href="#I"/><use xlink:href="#I"/></g><defs ><path id="B" d="M52.319 14.179c1.13-.675 2.428-1.014 3.743-.979 1.444-.052 2.863.388 4.024 1.248 1.114.889 1.871 2.149 2.134 3.55h-1.154a5.08 5.08 0 0 0-1.828-2.751c-.937-.669-2.068-1.011-3.219-.973a5.47 5.47 0 0 0-3.051.855c-.882.58-1.583 1.398-2.021 2.358-.495 1.082-.74 2.261-.718 3.45a8.02 8.02 0 0 0 .705 3.45c.434.958 1.127 1.775 2.003 2.358a5.27 5.27 0 0 0 2.97.848c1.003.025 1.996-.209 2.882-.68.787-.437 1.435-1.085 1.872-1.872a5.38 5.38 0 0 0 .661-2.683v-.624h-4.991v-1.086h6.139v7.942h-.986l-.112-3.481c-.376 1.034-1.06 1.929-1.959 2.564-1.035.727-2.28 1.096-3.544 1.048-1.259.023-2.498-.317-3.569-.979a6.57 6.57 0 0 1-2.439-2.745 8.96 8.96 0 0 1-.873-4.024 8.96 8.96 0 0 1 .873-4.024c.539-1.132 1.392-2.085 2.458-2.745"/><path id="C" d="M70.362 18.597h-.718a2.62 2.62 0 0 0-2.495 1.21 6.32 6.32 0 0 0-.699 3.163v5.615H65.34V17.53h.961l.175 2.196a3.59 3.59 0 0 1 1.173-1.61c.652-.426 1.424-.632 2.202-.587h.499l.013 1.067z"/><path id="D" d="M71.665 25.978a6.24 6.24 0 0 1-.674-2.938 6.15 6.15 0 0 1 .674-2.926 4.99 4.99 0 0 1 1.872-1.996c.832-.485 1.782-.733 2.745-.717a5.32 5.32 0 0 1 2.751.717 4.99 4.99 0 0 1 1.872 1.996 6.15 6.15 0 0 1 .674 2.926 6.24 6.24 0 0 1-.674 2.938 4.99 4.99 0 0 1-1.872 2.003 5.32 5.32 0 0 1-2.751.718c-.963.015-1.913-.233-2.745-.718a4.99 4.99 0 0 1-1.872-2.003zm8.273-.524a5.4 5.4 0 0 0 .518-2.414 5.36 5.36 0 0 0-.518-2.408c-.329-.678-.841-1.251-1.479-1.653-.651-.412-1.407-.628-2.177-.624a3.95 3.95 0 0 0-2.165.624 4.03 4.03 0 0 0-1.472 1.653 5.36 5.36 0 0 0-.524 2.408c-.014.834.165 1.661.524 2.414a3.91 3.91 0 0 0 1.472 1.653c.651.398 1.402.602 2.165.586a4.08 4.08 0 0 0 2.177-.586 3.93 3.93 0 0 0 1.479-1.653z"/><path id="E" d="M83.612 17.527l3.219 9.708 3.332-9.708h1.048l3.132 9.708 3.394-9.708h1.135l-3.918 11.036h-1.198l-3.113-9.271-3.244 9.271-1.217.019-3.743-11.055h1.173z"/><path id="F" d="M104.943 28.696c-.96.016-1.905-.232-2.733-.718-.79-.48-1.429-1.174-1.84-2.003a6.44 6.44 0 0 1-.624-2.963c-.021-1.015.206-2.019.661-2.926a4.82 4.82 0 0 1 1.872-1.978c.833-.483 1.782-.729 2.745-.711a4.78 4.78 0 0 1 3.088.992c.835.671 1.387 1.631 1.547 2.689h-1.11a3.32 3.32 0 0 0-1.248-1.971 3.74 3.74 0 0 0-2.327-.73 3.91 3.91 0 0 0-2.121.586 4 4 0 0 0-1.447 1.647 5.32 5.32 0 0 0-.524 2.402 5.4 5.4 0 0 0 .524 2.421c.319.677.82 1.251 1.447 1.66a3.82 3.82 0 0 0 2.121.624 3.74 3.74 0 0 0 2.327-.724c.64-.486 1.083-1.186 1.248-1.971h1.11c-.173 1.067-.735 2.032-1.578 2.708-.893.683-1.996 1.034-3.119.992"/><path id="G" d="M122.001 28.565h-.624a1.83 1.83 0 0 1-.753-.091 1.84 1.84 0 0 1-.651-.389c-.157-.184-.274-.399-.344-.631s-.091-.476-.061-.716v-.424a3.92 3.92 0 0 1-1.566 1.759c-.808.462-1.728.689-2.658.655-1.019.05-2.025-.25-2.851-.848-.348-.273-.626-.625-.811-1.026s-.273-.841-.256-1.282a2.9 2.9 0 0 1 .263-1.351 2.89 2.89 0 0 1 .86-1.075c.954-.634 2.09-.936 3.232-.861h3.743v-.961a2.73 2.73 0 0 0-.193-1.168 2.72 2.72 0 0 0-.668-.978 3.48 3.48 0 0 0-2.402-.774 3.78 3.78 0 0 0-2.233.624c-.559.383-.944.97-1.073 1.635h-1.111a3.41 3.41 0 0 1 .446-1.329 3.4 3.4 0 0 1 .946-1.035 5.05 5.05 0 0 1 3.069-.861 4.62 4.62 0 0 1 3.201 1.023c.387.376.689.832.884 1.336s.278 1.044.245 1.584v5.134c-.016.286.078.567.262.786.092.095.204.17.328.218a.93.93 0 0 0 .389.063h.412l-.025.986zm-6.307-5.372a3.89 3.89 0 0 0-2.327.587 1.95 1.95 0 0 0-.805 1.672 2 2 0 0 0 .188.917c.135.286.335.537.585.73a3.22 3.22 0 0 0 2.078.624 4.28 4.28 0 0 0 3.013-1.011c.361-.332.646-.738.835-1.19a3.39 3.39 0 0 0 .263-1.43v-.898h-3.83z"/><path id="H" d="M125.243 27.049a4.24 4.24 0 0 0 2.527.686c.797.034 1.585-.171 2.265-.586a1.79 1.79 0 0 0 .892-1.541 1.63 1.63 0 0 0-.092-.639 1.64 1.64 0 0 0-.332-.553c-.303-.303-.683-.518-1.098-.624a16.95 16.95 0 0 0-1.809-.362 17.93 17.93 0 0 1-2.265-.443 3.18 3.18 0 0 1-1.435-.842 2.27 2.27 0 0 1-.562-1.628 2.67 2.67 0 0 1 .531-1.634c.378-.498.882-.886 1.46-1.123a5.21 5.21 0 0 1 2.096-.399 5.25 5.25 0 0 1 3.082.836 3.2 3.2 0 0 1 1.341 2.427h-1.11c-.044-.338-.159-.663-.337-.953s-.417-.54-.699-.731c-.653-.434-1.425-.652-2.209-.624a3.82 3.82 0 0 0-2.221.593 1.78 1.78 0 0 0-.624.65c-.149.267-.226.567-.224.873a1.45 1.45 0 0 0 .424 1.111 2.36 2.36 0 0 0 1.036.543c.405.1.992.2 1.759.306a14.34 14.34 0 0 1 2.327.487c.57.172 1.084.49 1.491.923a2.46 2.46 0 0 1 .581 1.722 2.7 2.7 0 0 1-.326 1.31 2.68 2.68 0 0 1-.922.986 5.18 5.18 0 0 1-3.039.861 5.58 5.58 0 0 1-3.35-.923 3.13 3.13 0 0 1-1.304-2.602h1.111c.009.37.105.733.282 1.059s.429.604.735.813"/><path id="I" d="M132.887 18.554V17.53h2.09v-3.069h1.11v3.088h2.939v1.023h-2.939v7.424a1.67 1.67 0 0 0 .35 1.204c.159.134.344.235.543.298s.409.084.617.064h1.61v1.023h-1.61c-.356.032-.716-.006-1.057-.113a2.71 2.71 0 0 1-.933-.511c-.457-.546-.681-1.25-.624-1.959v-7.449h-2.096z"/></defs></svg>